<svg width="281" height="272" viewBox="0 0 281 272" fill="none" xmlns="http://www.w3.org/2000/svg">
<path d="M80.4885 5.19191C122.594 13.9909 141.761 48.5698 142.433 74.0782C152.557 50.826 185.136 11.6416 226.043 25.2316C270.951 40.1514 287.55 88.5905 270.33 132.73C246.051 194.965 193.733 228.804 105.034 267C72.4792 170.255 14.2345 130.409 5.32173 83.5759C-4.33947 32.8099 40.8126 -3.09944 80.4885 5.19191Z" fill="white" stroke="black" stroke-width="7"/>
<path d="M130.304 142.148L138.888 142.076L139.027 158.547C136.837 160.228 134.296 161.526 131.403 162.44C128.511 163.353 125.595 163.823 122.657 163.847C118.442 163.883 114.645 163.025 111.267 161.275C107.887 159.486 105.218 157.015 103.258 153.86C101.336 150.667 100.358 147.06 100.325 143.039C100.291 139.018 101.208 135.414 103.075 132.227C104.982 129.002 107.629 126.485 111.016 124.678C114.403 122.832 118.224 121.891 122.477 121.855C126.034 121.825 129.268 122.397 132.178 123.572C135.088 124.746 137.538 126.465 139.529 128.73L133.544 134.349C130.619 131.318 127.107 129.821 123.008 129.855C120.418 129.877 118.122 130.438 116.12 131.537C114.119 132.637 112.566 134.177 111.461 136.159C110.356 138.14 109.815 140.407 109.836 142.959C109.857 145.472 110.437 147.71 111.575 149.672C112.713 151.635 114.272 153.168 116.254 154.273C118.273 155.339 120.559 155.861 123.111 155.839C125.818 155.816 128.249 155.216 130.404 154.038L130.304 142.148ZM162.005 163.284C158.719 163.311 155.755 162.66 153.115 161.329C150.512 159.958 148.466 158.062 146.976 155.638C145.487 153.215 144.729 150.456 144.703 147.363C144.677 144.27 145.388 141.499 146.837 139.051C148.285 136.602 150.299 134.691 152.879 133.316C155.496 131.901 158.448 131.181 161.735 131.153C165.021 131.125 167.966 131.796 170.568 133.166C173.17 134.498 175.216 136.375 176.706 138.799C178.195 141.222 178.953 143.981 178.979 147.074C179.005 150.167 178.294 152.938 176.845 155.386C175.397 157.835 173.383 159.766 170.804 161.179C168.225 162.555 165.292 163.256 162.005 163.284ZM161.943 155.86C164.263 155.84 166.151 155.051 167.607 153.492C169.102 151.894 169.838 149.781 169.816 147.151C169.794 144.522 169.022 142.44 167.501 140.907C166.018 139.334 164.117 138.557 161.797 138.577C159.477 138.596 157.57 139.405 156.075 141.003C154.581 142.562 153.844 144.656 153.866 147.286C153.888 149.915 154.66 152.016 156.182 153.588C157.702 155.122 159.623 155.879 161.943 155.86Z" fill="black"/>
</svg>
