<svg width="262" height="71" viewBox="0 0 262 71" fill="none" xmlns="http://www.w3.org/2000/svg">
<path d="M18.9514 70L0.623276 21.8887H14.594L25.1057 51.8965L35.5725 21.8887H49.5881L31.26 70H18.9514ZM78.8448 8.81641C78.8448 9.95443 78.6202 11.0176 78.171 12.0059C77.7517 12.9941 77.1678 13.8626 76.4191 14.6113C75.6704 15.3301 74.7869 15.9141 73.7687 16.3633C72.7804 16.7826 71.7172 16.9922 70.5792 16.9922C69.4412 16.9922 68.3631 16.7826 67.3448 16.3633C66.3566 15.9141 65.4881 15.3301 64.7394 14.6113C64.0206 13.8626 63.4366 12.9941 62.9874 12.0059C62.5681 11.0176 62.3585 9.95443 62.3585 8.81641C62.3585 7.70833 62.5681 6.66016 62.9874 5.67188C63.4366 4.65365 64.0206 3.78516 64.7394 3.06641C65.4881 2.31771 66.3566 1.73372 67.3448 1.31445C68.3631 0.865234 69.4412 0.640625 70.5792 0.640625C71.7172 0.640625 72.7804 0.865234 73.7687 1.31445C74.7869 1.73372 75.6704 2.31771 76.4191 3.06641C77.1678 3.78516 77.7517 4.65365 78.171 5.67188C78.6202 6.66016 78.8448 7.70833 78.8448 8.81641ZM76.7335 70H64.38V21.8887H76.7335V70ZM144.398 45.5176C144.398 49.291 143.755 52.735 142.467 55.8496C141.179 58.9642 139.427 61.6445 137.211 63.8906C134.995 66.1068 132.389 67.8288 129.395 69.0566C126.43 70.2845 123.24 70.8984 119.826 70.8984C116.442 70.8984 113.253 70.2695 110.258 69.0117C107.293 67.7539 104.687 66.002 102.441 63.7559C100.225 61.5098 98.4733 58.8444 97.1855 55.7598C95.8978 52.6452 95.2539 49.2311 95.2539 45.5176V2.75195H107.562V25.2129C108.221 24.3743 109.015 23.6257 109.943 22.9668C110.902 22.3079 111.92 21.7689 112.998 21.3496C114.106 20.9303 115.244 20.6159 116.412 20.4062C117.58 20.1667 118.718 20.0469 119.826 20.0469C123.24 20.0469 126.43 20.6908 129.395 21.9785C132.389 23.2363 134.995 25.0033 137.211 27.2793C139.427 29.5553 141.179 32.2507 142.467 35.3652C143.755 38.4499 144.398 41.834 144.398 45.5176ZM132.045 45.5176C132.045 43.6608 131.715 41.9388 131.057 40.3516C130.428 38.7344 129.559 37.3418 128.451 36.1738C127.343 35.0059 126.04 34.0924 124.543 33.4336C123.076 32.7747 121.503 32.4453 119.826 32.4453C118.149 32.4453 116.562 32.8197 115.064 33.5684C113.597 34.2871 112.309 35.2604 111.201 36.4883C110.093 37.6862 109.225 39.0788 108.596 40.666C107.967 42.2233 107.652 43.8405 107.652 45.5176C107.652 47.3743 107.967 49.0964 108.596 50.6836C109.225 52.2708 110.093 53.6484 111.201 54.8164C112.309 55.9844 113.597 56.9128 115.064 57.6016C116.562 58.2604 118.149 58.5898 119.826 58.5898C121.503 58.5898 123.076 58.2604 124.543 57.6016C126.04 56.9128 127.343 55.9844 128.451 54.8164C129.559 53.6484 130.428 52.2708 131.057 50.6836C131.715 49.0964 132.045 47.3743 132.045 45.5176ZM180.483 58.2305C180.962 58.3802 181.442 58.485 181.921 58.5449C182.4 58.5749 182.879 58.5898 183.358 58.5898C184.556 58.5898 185.709 58.4251 186.817 58.0957C187.925 57.7663 188.959 57.3021 189.917 56.7031C190.905 56.0742 191.774 55.3255 192.522 54.457C193.301 53.5586 193.93 52.5703 194.409 51.4922L203.393 60.5215C202.255 62.1387 200.938 63.5911 199.44 64.8789C197.973 66.1667 196.371 67.2598 194.634 68.1582C192.927 69.0566 191.115 69.7305 189.198 70.1797C187.311 70.6589 185.365 70.8984 183.358 70.8984C179.974 70.8984 176.785 70.2695 173.79 69.0117C170.825 67.7539 168.22 66.002 165.974 63.7559C163.757 61.5098 162.005 58.8444 160.718 55.7598C159.43 52.6452 158.786 49.2311 158.786 45.5176C158.786 41.7142 159.43 38.2402 160.718 35.0957C162.005 31.9512 163.757 29.2708 165.974 27.0547C168.22 24.8385 170.825 23.1165 173.79 21.8887C176.785 20.6608 179.974 20.0469 183.358 20.0469C185.365 20.0469 187.326 20.2865 189.243 20.7656C191.16 21.2448 192.972 21.9336 194.679 22.832C196.416 23.7305 198.033 24.8385 199.53 26.1562C201.028 27.444 202.345 28.8965 203.483 30.5137L180.483 58.2305ZM186.772 32.9395C186.203 32.7298 185.634 32.5951 185.065 32.5352C184.526 32.4753 183.957 32.4453 183.358 32.4453C181.681 32.4453 180.094 32.7598 178.597 33.3887C177.129 33.9876 175.841 34.8561 174.733 35.9941C173.655 37.1322 172.802 38.5098 172.173 40.127C171.544 41.7142 171.229 43.5111 171.229 45.5176C171.229 45.9668 171.244 46.4759 171.274 47.0449C171.334 47.6139 171.409 48.1979 171.499 48.7969C171.619 49.3659 171.753 49.9199 171.903 50.459C172.053 50.998 172.248 51.4772 172.487 51.8965L186.772 32.9395ZM246.217 70H218.185V57.7812H246.217C247.055 57.7812 247.774 57.4818 248.373 56.8828C248.972 56.2839 249.271 55.5651 249.271 54.7266C249.271 53.8581 248.972 53.2891 248.373 53.0195C247.774 52.75 247.055 52.6152 246.217 52.6152H233.459C231.332 52.6152 229.341 52.2109 227.484 51.4023C225.627 50.5938 224.01 49.5007 222.633 48.123C221.255 46.7155 220.162 45.0833 219.353 43.2266C218.575 41.3698 218.185 39.3783 218.185 37.252C218.185 35.1257 218.575 33.1341 219.353 31.2773C220.162 29.4206 221.255 27.8034 222.633 26.4258C224.01 25.0482 225.627 23.9701 227.484 23.1914C229.341 22.3828 231.332 21.9785 233.459 21.9785H258.301V34.1973H233.459C232.62 34.1973 231.901 34.4967 231.302 35.0957C230.704 35.6947 230.404 36.4134 230.404 37.252C230.404 38.1204 230.704 38.8691 231.302 39.498C231.901 40.097 232.62 40.3965 233.459 40.3965H246.217C248.313 40.3965 250.289 40.7559 252.146 41.4746C254.003 42.1634 255.62 43.1367 256.998 44.3945C258.375 45.6523 259.469 47.1647 260.277 48.9316C261.086 50.6986 261.49 52.6302 261.49 54.7266C261.49 56.8529 261.086 58.8444 260.277 60.7012C259.469 62.528 258.375 64.1452 256.998 65.5527C255.62 66.9303 254.003 68.0234 252.146 68.832C250.289 69.6107 248.313 70 246.217 70Z" fill="white"/>
</svg>
